<svg width="34" height="34" viewBox="0 0 34 34" fill="none" xmlns="http://www.w3.org/2000/svg">
<circle cx="16.9706" cy="16.9706" r="16.9706" fill="#ED1C24"/>
<path d="M16.9705 8.62273C19.6892 8.62273 20.0113 8.63312 21.085 8.68211C22.0778 8.72738 22.6169 8.89326 22.9757 9.0327C23.451 9.21742 23.7902 9.43806 24.1465 9.79435C24.5028 10.1507 24.7235 10.4899 24.9082 10.9652C25.0476 11.324 25.2135 11.8631 25.2588 12.8559C25.3077 13.9296 25.3181 14.2516 25.3181 16.9704C25.3181 19.6892 25.3077 20.0113 25.2588 21.0849C25.2135 22.0777 25.0476 22.6168 24.9082 22.9756C24.7235 23.4509 24.5028 23.7901 24.1465 24.1464C23.7902 24.5027 23.451 24.7234 22.9757 24.9081C22.6169 25.0476 22.0778 25.2134 21.085 25.2587C20.0115 25.3077 19.6894 25.3181 16.9705 25.3181C14.2514 25.3181 13.9295 25.3077 12.8559 25.2587C11.8631 25.2134 11.324 25.0476 10.9652 24.9081C10.4899 24.7234 10.1507 24.5027 9.7944 24.1464C9.43811 23.7901 9.21742 23.4509 9.03271 22.9756C8.89326 22.6168 8.72739 22.0777 8.68212 21.0849C8.63313 20.0113 8.62274 19.6892 8.62274 16.9704C8.62274 14.2516 8.63313 13.9296 8.68212 12.8559C8.72739 11.8631 8.89326 11.324 9.03271 10.9652C9.21742 10.4899 9.43807 10.1507 9.7944 9.79439C10.1507 9.43806 10.4899 9.21742 10.9652 9.0327C11.324 8.89326 11.8631 8.72738 12.8559 8.68211C13.9296 8.63312 14.2516 8.62273 16.9705 8.62273ZM16.9705 6.78809C14.2051 6.78809 13.8583 6.79981 12.7723 6.84936C11.6885 6.89879 10.9483 7.07094 10.3006 7.32262C9.63103 7.58284 9.06319 7.93101 8.49708 8.49707C7.93101 9.06318 7.58284 9.63102 7.32267 10.3006C7.07094 10.9483 6.89879 11.6885 6.84936 12.7722C6.79981 13.8583 6.78809 14.2051 6.78809 16.9704C6.78809 19.7358 6.79981 20.0825 6.84936 21.1686C6.89879 22.2523 7.07094 22.9925 7.32267 23.6402C7.58284 24.3098 7.93101 24.8776 8.49708 25.4437C9.06319 26.0098 9.63103 26.358 10.3006 26.6181C10.9483 26.8699 11.6885 27.042 12.7723 27.0914C13.8583 27.141 14.2051 27.1527 16.9705 27.1527C19.7358 27.1527 20.0826 27.141 21.1686 27.0914C22.2524 27.042 22.9926 26.8699 23.6403 26.6181C24.3098 26.358 24.8777 26.0098 25.4438 25.4437C26.0099 24.8776 26.358 24.3098 26.6182 23.6402C26.8699 22.9925 27.0421 22.2523 27.0915 21.1686C27.1411 20.0825 27.1528 19.7358 27.1528 16.9704C27.1528 14.2051 27.1411 13.8583 27.0915 12.7722C27.0421 11.6885 26.8699 10.9483 26.6182 10.3006C26.358 9.63102 26.0099 9.06318 25.4438 8.49707C24.8777 7.93101 24.3098 7.58284 23.6403 7.32262C22.9926 7.07094 22.2524 6.89879 21.1686 6.84936C20.0826 6.79981 19.7358 6.78809 16.9705 6.78809Z" fill="white"/>
<path d="M16.9749 11.7466C14.0871 11.7466 11.7461 14.0876 11.7461 16.9753C11.7461 19.8631 14.0871 22.2041 16.9749 22.2041C19.8627 22.2041 22.2036 19.8631 22.2036 16.9753C22.2036 14.0876 19.8627 11.7466 16.9749 11.7466ZM16.9749 20.3694C15.1003 20.3694 13.5807 18.8499 13.5807 16.9753C13.5807 15.1008 15.1003 13.5812 16.9749 13.5812C18.8494 13.5812 20.369 15.1008 20.369 16.9753C20.369 18.8499 18.8494 20.3694 16.9749 20.3694Z" fill="white"/>
<path d="M23.6322 11.5368C23.6322 12.2116 23.0852 12.7587 22.4103 12.7587C21.7355 12.7587 21.1885 12.2116 21.1885 11.5368C21.1885 10.862 21.7355 10.3149 22.4103 10.3149C23.0852 10.3149 23.6322 10.862 23.6322 11.5368Z" fill="white"/>
</svg>
