<svg width="35" height="34" viewBox="0 0 35 34" fill="none" xmlns="http://www.w3.org/2000/svg">
<circle cx="17.7069" cy="16.9706" r="16.9706" fill="#ED1C24"/>
<path fill-rule="evenodd" clip-rule="evenodd" d="M27.8891 10.4443C27.1404 10.7769 26.3347 11.0009 25.4896 11.102C26.3524 10.5848 27.0149 9.7662 27.3264 8.7908C26.52 9.27002 25.6247 9.61688 24.6737 9.8049C23.9115 8.99308 22.8248 8.48535 21.624 8.48535C19.3168 8.48535 17.4461 10.3561 17.4461 12.6632C17.4461 12.9904 17.4834 13.3094 17.5547 13.6156C14.0821 13.4418 11.0038 11.7781 8.94306 9.25033C8.58331 9.86734 8.37764 10.5848 8.37764 11.3505C8.37764 12.7997 9.11411 14.0785 10.2361 14.8279C9.55057 14.8061 8.90708 14.6181 8.34302 14.3052V14.3575C8.34302 16.3823 9.78407 18.0704 11.6941 18.4552C11.3439 18.5503 10.9746 18.6019 10.5938 18.6019C10.3244 18.6019 10.0624 18.5754 9.80714 18.5265C10.3386 20.1861 11.8822 21.3944 13.7101 21.4283C12.2806 22.5483 10.4791 23.2169 8.52154 23.2169C8.18351 23.2169 7.85091 23.1972 7.52441 23.1578C9.37341 24.343 11.5693 25.0353 13.9287 25.0353C21.6131 25.0353 25.8155 18.6691 25.8155 13.1486C25.8155 12.9673 25.8121 12.7868 25.8032 12.6083C26.6205 12.0177 27.3291 11.2819 27.8891 10.4443Z" fill="white"/>
</svg>
